# FreeCAD v1.0 build0 Arch module
# https://www.freecad.org
mtllib reecad.mtl
o Chamfer001
usemtl color_cccce6
v -3.0 17.993927 45.870888
v -11.707107 18.373135 46.037544
v -12.0 17.993927 45.870888
v -3.292893 18.373135 46.037544
v -11.707107 41.078297 37.196598
v -12.0 41.244957 36.81739
v -10.0 20.22047 46.077049
v -12.0 12.551264 31.893141
v -3.0 12.551264 31.893141
v -3.0 41.244957 36.81739
v -3.292893 41.078297 37.196598
v -10.0 39.744099 38.474926
v -12.0 35.802292 22.839642
v -5.0 39.744099 38.474926
v -5.0 20.22047 46.077049
v -12.0 -17.489891 25.103022
v -3.0 -17.489891 25.103022
v -3.0 35.802292 22.839642
v -3.0 15.534804 -35.49369
v -12.210472 35.784737 22.822439
v -12.233445 12.549113 31.864328
v -12.411514 35.732861 22.771601
v -12.453991 12.542779 31.77948
v -12.594121 35.648983 22.689405
v -12.649448 12.532612 31.643288
v -12.750112 35.536865 22.579536
v -12.809017 12.519174 31.463274
v -12.872496 35.401531 22.446913
v -12.92388 12.503207 31.24939
v -12.955793 35.249039 22.297478
v -12.980785 12.488604 31.053764
v -12.988887 35.135117 22.185839
v -13.0 35.0186 22.071661
v -12.0 -21.193596 13.889027
v -3.0 -21.193596 13.889027
v -12.210472 -17.472595 25.083967
v -12.411514 -17.42148 25.027653
v -12.594121 -17.338837 24.936605
v -12.750112 -17.228367 24.814901
v -12.872496 -17.095022 24.667994
v -12.955793 -16.944773 24.502464
v -12.988887 -16.832525 24.378801
v -13.0 -16.717726 24.252327
v -12.0 47.633564 -9.464884
v -12.0 15.534804 -35.49369
v -3.0 47.633564 -9.464884
v -13.0 46.44891 -9.138057
v -13.0 12.473416 30.850319
v -13.0 -20.081076 14.068847
v -12.189695 47.612053 -9.45895
v -12.372502 47.548306 -9.441362
v -12.541781 47.444633 -9.412762
v -12.691387 47.304806 -9.374185
v -12.815886 47.133892 -9.327033
v -12.910756 46.938107 -9.273019
v -12.972553 46.724556 -9.214104
v -12.993114 46.587688 -9.176344
v -12.210472 -21.168676 13.893055
v -12.411514 -21.09503 13.904959
v -12.594121 -20.97596 13.924204
v -12.750111 -20.816799 13.949929
v -12.872496 -20.624678 13.980983
v -12.955793 -20.408201 14.015972
v -12.988887 -20.246477 14.042112
v -12.169596 15.537413 -35.472923
v -12.334278 15.545164 -35.411228
v -12.489276 15.557833 -35.310387
v -12.630097 15.575052 -35.173325
v -12.752664 15.596324 -35.004013
v -12.853423 15.62103 -34.807358
v -12.948904 15.658068 -34.512554
v -12.987144 15.686113 -34.289318
v -13.0 15.714899 -34.060192
vn 0.0 -0.402344 0.915488
vn 0.0 -0.402344 0.915488
vn -0.707105 0.25657 0.658919
vn -0.707106 0.25657 0.658918
vn 0.0 -0.02138 0.999771
vn 0.0 -0.02138 0.999771
vn 0.0 -0.93185 0.362844
vn 0.0 -0.93185 0.362844
vn 0.707105 0.25657 0.658919
vn 0.707106 0.25657 0.658918
vn -0.382684 0.335224 0.860917
vn -0.382682 0.335225 0.860917
vn -1.0 0.0 0.0
vn -1.0 0.0 0.0
vn 0.0 0.915485 0.402352
vn -0.0 0.915485 0.402352
vn 0.0 0.362844 0.93185
vn -0.0 0.362844 0.93185
vn 0.382682 0.335224 0.860918
vn 0.382684 0.335224 0.860917
vn 0.0 -0.220466 0.975395
vn 0.0 -0.220466 0.975395
vn 1.0 0.0 0.0
vn 1.0 -0.0 0.0
vn 1.0 0.0 0.0
vn 1.0 0.0 0.0
vn 1.0 -0.0 0.0
vn 1.0 -0.0 0.0
vn 0.0 0.691827 0.722064
vn 0.0 0.691827 0.722063
vn -0.105829 0.360807 0.926617
vn -0.117537 0.360236 0.925427
vn -0.346137 0.340249 0.874311
vn -0.312762 0.344724 0.885068
vn -0.555602 0.301468 0.77487
vn -0.50569 0.313177 0.803864
vn -0.734366 0.246031 0.632594
vn -0.675953 0.267584 0.686649
vn -0.872533 0.177007 0.455363
vn -0.815935 0.209986 0.538661
vn -0.956957 0.105125 0.270523
vn -0.919344 0.142974 0.366559
vn -0.995189 0.035414 0.091348
vn -0.975062 0.080619 0.206772
vn -0.997218 0.027047 0.069461
vn 0.0 0.93185 -0.362844
vn 0.0 0.93185 -0.362844
vn 0.0 -0.949551 0.313613
vn 0.0 -0.949551 0.313613
vn -0.105824 -0.219228 0.969918
vn -0.312768 -0.209475 0.926443
vn -0.117537 -0.218859 0.968652
vn -0.505687 -0.190323 0.841462
vn -0.346133 -0.206697 0.915133
vn -0.675958 -0.162629 0.718772
vn -0.555595 -0.183122 0.811037
vn -0.815937 -0.127638 0.563876
vn -0.734358 -0.149431 0.662109
vn -0.919344 -0.086922 0.383734
vn -0.872526 -0.10749 0.476597
vn -0.975062 -0.049006 0.216454
vn -0.956954 -0.063833 0.283135
vn -0.997218 -0.016434 0.072708
vn -0.995188 -0.021487 0.095596
vn 0.0 0.939005 0.343903
vn -0.0 0.939005 0.343903
vn 0.0 0.629843 -0.776723
vn 0.0 0.629843 -0.776723
vn 0.0 -0.802401 -0.596786
vn 0.0 -0.802401 -0.596786
vn -1.0 0.0 0.0
vn -1.0 0.0 0.0
vn -1.0 0.0 0.0
vn -1.0 0.0 0.0
vn -0.095288 0.934732 0.342338
vn -0.105834 0.933711 0.342027
vn -0.312759 0.891862 0.326749
vn -0.282389 0.900806 0.329857
vn -0.505688 0.810048 0.29682
vn -0.459261 0.834151 0.305403
vn -0.675945 0.691947 0.253589
vn -0.619434 0.737205 0.269869
vn -0.81592 0.542843 0.198988
vn -0.757133 0.613461 0.224534
vn -0.919333 0.369425 0.135469
vn -0.867306 0.467458 0.171061
vn -0.97506 0.208376 0.076402
vn -0.945985 0.304478 0.111384
vn -0.99722 0.069951 0.025678
vn -0.984535 0.164515 0.060209
vn -0.998277 0.055097 0.020179
vn -0.105825 -0.944219 0.311852
vn -0.105825 -0.944219 0.311852
vn -0.312756 -0.901915 0.29788
vn -0.312753 -0.901916 0.297881
vn -0.505657 -0.81921 0.270565
vn -0.505658 -0.81921 0.270565
vn -0.675911 -0.699803 0.231128
vn -0.675913 -0.699802 0.231127
vn -0.815885 -0.549044 0.181336
vn -0.815886 -0.549043 0.181335
vn -0.919307 -0.373688 0.12342
vn -0.919306 -0.373689 0.12342
vn -0.975052 -0.210776 0.069614
vn -0.975052 -0.210777 0.069614
vn -0.997218 -0.070781 0.023377
vn -0.997218 -0.070781 0.023377
vn -0.095287 0.627009 -0.773162
vn -0.085114 0.627557 -0.773904
vn -0.282397 0.604264 -0.745062
vn -0.252856 0.609346 -0.751506
vn -0.459259 0.559566 -0.689904
vn -0.413308 0.573479 -0.707318
vn -0.619434 0.494542 -0.609697
vn -0.561767 0.521003 -0.642631
vn -0.757123 0.411545 -0.507341
vn -0.693943 0.453437 -0.55932
vn -0.867298 0.31361 -0.38658
vn -0.806009 0.372739 -0.459799
vn -0.945983 0.204293 -0.251756
vn -0.907073 0.265023 -0.327079
vn -0.984535 0.110371 -0.136046
vn -0.97117 0.150086 -0.185213
vn -0.998277 0.036956 -0.045575
vn -0.996786 0.050407 -0.062263
vn -0.085108 -0.799489 -0.59462
vn -0.252861 -0.776299 -0.577426
vn -0.10583 -0.797929 -0.593388
vn -0.413303 -0.730626 -0.543477
vn -0.312769 -0.762196 -0.566774
vn -0.56175 -0.663804 -0.493762
vn -0.505676 -0.692303 -0.51479
vn -0.693902 -0.577781 -0.429732
vn -0.805962 -0.474998 -0.353273
vn -0.675927 -0.591381 -0.439763
vn -0.907034 -0.337821 -0.251328
vn -0.815899 -0.463976 -0.345015
vn -0.971156 -0.191312 -0.14232
vn -0.919313 -0.315787 -0.234822
vn -0.996782 -0.064313 -0.047851
vn -0.975054 -0.178115 -0.132457
vn -0.997218 -0.059812 -0.044485
f 1//1 2//1 3//1 
f 4//2 2//2 1//2 
f 5//3 3//3 2//3 
f 6//4 3//4 5//4 
f 4//5 7//5 2//5 
f 15//6 7//6 4//6 
f 3//7 8//7 1//7 
f 8//8 9//8 1//8 
f 1//9 10//9 4//9 
f 4//10 10//10 11//10 
f 7//11 5//11 2//11 
f 7//12 12//12 5//12 
f 13//13 8//13 3//13 
f 13//14 3//14 6//14 
f 5//15 10//15 6//15 
f 5//16 11//16 10//16 
f 14//17 7//17 15//17 
f 12//18 7//18 14//18 
f 4//19 11//19 14//19 
f 4//20 14//20 15//20 
f 9//21 16//21 17//21 
f 8//22 16//22 9//22 
f 18//23 19//23 46//23 
f 9//24 18//24 10//24 
f 9//25 19//25 18//25 
f 1//26 9//26 10//26 
f 35//27 19//27 9//27 
f 17//28 35//28 9//28 
f 11//29 5//29 12//29 
f 11//30 12//30 14//30 
f 13//31 20//31 8//31 
f 8//32 20//32 21//32 
f 21//33 22//33 23//33 
f 20//34 22//34 21//34 
f 23//35 24//35 25//35 
f 22//36 24//36 23//36 
f 25//37 26//37 27//37 
f 24//38 26//38 25//38 
f 27//39 28//39 29//39 
f 26//40 28//40 27//40 
f 29//41 30//41 31//41 
f 28//42 30//42 29//42 
f 31//43 32//43 48//43 
f 30//44 32//44 31//44 
f 32//45 33//45 48//45 
f 13//46 6//46 10//46 
f 18//47 13//47 10//47 
f 17//48 34//48 35//48 
f 16//49 34//49 17//49 
f 16//50 8//50 36//50 
f 36//51 21//51 37//51 
f 8//52 21//52 36//52 
f 37//53 23//53 38//53 
f 21//54 23//54 37//54 
f 38//55 25//55 39//55 
f 23//56 25//56 38//56 
f 39//57 27//57 40//57 
f 25//58 27//58 39//58 
f 40//59 29//59 41//59 
f 27//60 29//60 40//60 
f 41//61 31//61 42//61 
f 29//62 31//62 41//62 
f 42//63 48//63 43//63 
f 31//64 48//64 42//64 
f 44//65 13//65 18//65 
f 44//66 18//66 46//66 
f 45//67 44//67 46//67 
f 45//68 46//68 19//68 
f 35//69 45//69 19//69 
f 34//70 45//70 35//70 
f 73//71 33//71 47//71 
f 73//72 48//72 33//72 
f 73//73 49//73 48//73 
f 49//74 43//74 48//74 
f 44//75 50//75 13//75 
f 13//76 50//76 20//76 
f 20//77 51//77 22//77 
f 50//78 51//78 20//78 
f 22//79 52//79 24//79 
f 51//80 52//80 22//80 
f 24//81 53//81 26//81 
f 52//82 53//82 24//82 
f 26//83 54//83 28//83 
f 53//84 54//84 26//84 
f 28//85 55//85 30//85 
f 54//86 55//86 28//86 
f 30//87 56//87 32//87 
f 55//88 56//88 30//88 
f 32//89 57//89 33//89 
f 56//90 57//90 32//90 
f 57//91 47//91 33//91 
f 16//92 36//92 34//92 
f 34//93 36//93 58//93 
f 58//94 37//94 59//94 
f 36//95 37//95 58//95 
f 59//96 38//96 60//96 
f 37//97 38//97 59//97 
f 60//98 39//98 61//98 
f 38//99 39//99 60//99 
f 61//100 40//100 62//100 
f 39//101 40//101 61//101 
f 62//102 41//102 63//102 
f 40//103 41//103 62//103 
f 63//104 42//104 64//104 
f 41//105 42//105 63//105 
f 64//106 43//106 49//106 
f 42//107 43//107 64//107 
f 44//108 65//108 50//108 
f 45//109 65//109 44//109 
f 50//110 66//110 51//110 
f 65//111 66//111 50//111 
f 51//112 67//112 52//112 
f 66//113 67//113 51//113 
f 52//114 68//114 53//114 
f 67//115 68//115 52//115 
f 53//116 69//116 54//116 
f 68//117 69//117 53//117 
f 54//118 70//118 55//118 
f 69//119 70//119 54//119 
f 55//120 71//120 56//120 
f 70//121 71//121 55//121 
f 56//122 72//122 57//122 
f 71//123 72//123 56//123 
f 57//124 73//124 47//124 
f 72//125 73//125 57//125 
f 45//126 34//126 65//126 
f 65//127 58//127 66//127 
f 34//128 58//128 65//128 
f 66//129 59//129 67//129 
f 58//130 59//130 66//130 
f 67//131 60//131 68//131 
f 59//132 60//132 67//132 
f 68//133 61//133 69//133 
f 69//134 61//134 70//134 
f 60//135 61//135 68//135 
f 70//136 62//136 71//136 
f 61//137 62//137 70//137 
f 71//138 63//138 72//138 
f 62//139 63//139 71//139 
f 72//140 64//140 73//140 
f 63//141 64//141 72//141 
f 64//142 49//142 73//142 
